<?xml version="1.0" encoding="utf-8"?>
<!-- Generator: Adobe Illustrator 16.2.0, SVG Export Plug-In . SVG Version: 6.00 Build 0)  -->
<!DOCTYPE svg PUBLIC "-//W3C//DTD SVG 1.1//EN" "http://www.w3.org/Graphics/SVG/1.1/DTD/svg11.dtd">
<svg version="1.1" id="Layer_1" xmlns="http://www.w3.org/2000/svg" xmlns:xlink="http://www.w3.org/1999/xlink" x="0px" y="0px"
	 width="339.359px" height="339.359px" viewBox="0 0 339.359 339.359" enable-background="new 0 0 339.359 339.359"
	 xml:space="preserve">
<path fill="#FF7800" d="M239.959,0H99.395L0,99.396v140.568l99.395,99.395h140.564l63.52-63.516v63.516h35.881v-99.395V169.68
	V99.396L239.959,0z M302.154,224.553l-77.605,77.601H114.807l-77.6-77.601V114.807l77.6-77.602h109.742l77.605,77.602v54.873
	V224.553z"/>
<polygon fill="#FF7800" points="207.02,259.827 132.338,259.827 79.531,207.021 79.531,132.339 132.338,79.53 207.02,79.53 
	259.83,132.339 295.18,117.695 221.662,44.18 117.695,44.18 44.182,117.695 44.182,221.665 117.695,295.18 221.662,295.18 
	295.18,221.665 259.83,207.021 "/>
<polygon fill="#FF7800" points="175.383,150.778 175.346,150.778 120.914,150.778 142.709,128.256 149.648,121.316 189.711,121.316 
	204.059,86.68 135.299,86.68 113.713,108.267 86.68,134.886 86.68,150.778 86.68,186.154 86.68,188.582 164.592,188.582 
	164.629,188.582 219.061,188.582 197.266,211.105 190.328,218.044 150.266,218.044 135.918,252.682 204.676,252.682 
	226.264,231.094 253.295,204.475 253.295,188.582 253.295,153.206 253.295,150.778 "/>
</svg>
