<svg xmlns="http://www.w3.org/2000/svg" version="1.1" x="0" y="0" width="339.4" height="339.4" viewBox="0 0 339.4 339.4" enable-background="new 0 0 339.359 339.359" xml:space="preserve"><path fill="#FF7800" d="M240 0H99.4L0 99.4v140.6l99.4 99.4h140.6l63.5-63.5v63.5h35.9v-99.4V169.7 99.4L240 0zM302.2 224.6l-77.6 77.6H114.8l-77.6-77.6V114.8l77.6-77.6h109.7l77.6 77.6v54.9V224.6z"/><polygon fill="#FF7800" points="207 259.8 132.3 259.8 79.5 207 79.5 132.3 132.3 79.5 207 79.5 259.8 132.3 295.2 117.7 221.7 44.2 117.7 44.2 44.2 117.7 44.2 221.7 117.7 295.2 221.7 295.2 295.2 221.7 259.8 207 "/><polygon fill="#FF7800" points="175.4 150.8 175.3 150.8 120.9 150.8 142.7 128.3 149.6 121.3 189.7 121.3 204.1 86.7 135.3 86.7 113.7 108.3 86.7 134.9 86.7 150.8 86.7 186.2 86.7 188.6 164.6 188.6 164.6 188.6 219.1 188.6 197.3 211.1 190.3 218 150.3 218 135.9 252.7 204.7 252.7 226.3 231.1 253.3 204.5 253.3 188.6 253.3 153.2 253.3 150.8 "/></svg>